<mxfile host="app.diagrams.net" agent="Mozilla/5.0 (Windows NT 10.0; Win64; x64) AppleWebKit/537.36 (KHTML, like Gecko) Chrome/131.0.0.0 Safari/537.36" version="25.0.3">
  <diagram name="Page-1" id="7PWgzo6qu8nFpUmjgYNc">
    <mxGraphModel dx="1434" dy="744" grid="1" gridSize="10" guides="1" tooltips="1" connect="1" arrows="1" fold="1" page="1" pageScale="1" pageWidth="827" pageHeight="1169" math="0" shadow="0">
      <root>
        <mxCell id="0" />
        <mxCell id="1" parent="0" />
        <mxCell id="UNNmBJ0jyy0QN1x2yB6o-9" style="edgeStyle=orthogonalEdgeStyle;rounded=0;orthogonalLoop=1;jettySize=auto;html=1;exitX=0.5;exitY=0.5;exitDx=0;exitDy=0;exitPerimeter=0;entryX=0;entryY=0.25;entryDx=0;entryDy=0;" edge="1" parent="1" source="HvQampFsSO-Fz9gzfGf1-1" target="HvQampFsSO-Fz9gzfGf1-4">
          <mxGeometry relative="1" as="geometry" />
        </mxCell>
        <mxCell id="HvQampFsSO-Fz9gzfGf1-1" value="ADMIN" style="shape=umlActor;verticalLabelPosition=bottom;verticalAlign=top;html=1;outlineConnect=0;" parent="1" vertex="1">
          <mxGeometry y="60" width="65" height="130" as="geometry" />
        </mxCell>
        <mxCell id="HvQampFsSO-Fz9gzfGf1-4" value="&lt;span style=&quot;font-weight: normal;&quot;&gt;&lt;font style=&quot;font-size: 14px;&quot;&gt;RECORD MANAGEMENT SYSTEM&lt;/font&gt;&lt;/span&gt;" style="swimlane;whiteSpace=wrap;html=1;" parent="1" vertex="1">
          <mxGeometry x="100" width="520" height="500" as="geometry">
            <mxRectangle x="290" y="110" width="230" height="30" as="alternateBounds" />
          </mxGeometry>
        </mxCell>
        <mxCell id="HvQampFsSO-Fz9gzfGf1-5" value="&lt;span&gt;&lt;font style=&quot;font-size: 13px;&quot;&gt;Dashboard: View Total stalls, total renters, and monthly payments&lt;/font&gt;&lt;/span&gt;" style="ellipse;whiteSpace=wrap;html=1;fontStyle=1" parent="HvQampFsSO-Fz9gzfGf1-4" vertex="1">
          <mxGeometry x="30" y="60" width="210" height="110" as="geometry" />
        </mxCell>
        <mxCell id="HvQampFsSO-Fz9gzfGf1-6" value="&lt;span style=&quot;font-size: 13px;&quot;&gt;Stall Type: Add stall categories&lt;/span&gt;" style="ellipse;whiteSpace=wrap;html=1;fontStyle=1" parent="HvQampFsSO-Fz9gzfGf1-4" vertex="1">
          <mxGeometry x="30" y="210" width="210" height="110" as="geometry" />
        </mxCell>
        <mxCell id="HvQampFsSO-Fz9gzfGf1-7" value="&lt;span&gt;&lt;font style=&quot;font-size: 13px;&quot;&gt;Renters: Add, View, and Edit Renter Details.&lt;/font&gt;&lt;/span&gt;" style="ellipse;whiteSpace=wrap;html=1;fontStyle=1" parent="HvQampFsSO-Fz9gzfGf1-4" vertex="1">
          <mxGeometry x="30" y="350" width="210" height="110" as="geometry" />
        </mxCell>
        <mxCell id="HvQampFsSO-Fz9gzfGf1-8" value="&lt;span&gt;&lt;font style=&quot;font-size: 13px;&quot;&gt;Payments: Add Payments&lt;/font&gt;&lt;/span&gt;" style="ellipse;whiteSpace=wrap;html=1;fontStyle=1" parent="HvQampFsSO-Fz9gzfGf1-4" vertex="1">
          <mxGeometry x="280" y="60" width="210" height="110" as="geometry" />
        </mxCell>
        <mxCell id="HvQampFsSO-Fz9gzfGf1-9" value="&lt;span&gt;&lt;font style=&quot;font-size: 13px;&quot;&gt;Reports: Generate Monthly Payments&lt;/font&gt;&lt;/span&gt;&lt;div&gt;&lt;span&gt;&lt;font style=&quot;font-size: 13px;&quot;&gt;Generate Rental Balances&lt;/font&gt;&lt;/span&gt;&lt;/div&gt;" style="ellipse;whiteSpace=wrap;html=1;fontStyle=1" parent="HvQampFsSO-Fz9gzfGf1-4" vertex="1">
          <mxGeometry x="280" y="210" width="210" height="110" as="geometry" />
        </mxCell>
        <mxCell id="HvQampFsSO-Fz9gzfGf1-10" value="&lt;span&gt;&lt;font style=&quot;font-size: 13px;&quot;&gt;Users: Add and Edit Users.&lt;/font&gt;&lt;/span&gt;" style="ellipse;whiteSpace=wrap;html=1;fontStyle=1" parent="HvQampFsSO-Fz9gzfGf1-4" vertex="1">
          <mxGeometry x="280" y="350" width="210" height="110" as="geometry" />
        </mxCell>
        <mxCell id="UNNmBJ0jyy0QN1x2yB6o-4" style="edgeStyle=orthogonalEdgeStyle;rounded=0;orthogonalLoop=1;jettySize=auto;html=1;exitX=0.5;exitY=0.5;exitDx=0;exitDy=0;exitPerimeter=0;entryX=1;entryY=0.5;entryDx=0;entryDy=0;" edge="1" parent="1" source="UNNmBJ0jyy0QN1x2yB6o-1" target="HvQampFsSO-Fz9gzfGf1-8">
          <mxGeometry relative="1" as="geometry" />
        </mxCell>
        <mxCell id="UNNmBJ0jyy0QN1x2yB6o-7" style="edgeStyle=orthogonalEdgeStyle;rounded=0;orthogonalLoop=1;jettySize=auto;html=1;exitX=0.5;exitY=0.5;exitDx=0;exitDy=0;exitPerimeter=0;entryX=1;entryY=0.5;entryDx=0;entryDy=0;" edge="1" parent="1" source="UNNmBJ0jyy0QN1x2yB6o-1" target="HvQampFsSO-Fz9gzfGf1-9">
          <mxGeometry relative="1" as="geometry">
            <Array as="points">
              <mxPoint x="640" y="115" />
              <mxPoint x="640" y="265" />
            </Array>
          </mxGeometry>
        </mxCell>
        <mxCell id="UNNmBJ0jyy0QN1x2yB6o-1" value="COLLECTOR" style="shape=umlActor;verticalLabelPosition=bottom;verticalAlign=top;html=1;outlineConnect=0;" vertex="1" parent="1">
          <mxGeometry x="660" y="50" width="65" height="130" as="geometry" />
        </mxCell>
        <mxCell id="UNNmBJ0jyy0QN1x2yB6o-5" value="DATABASE" style="shape=cylinder3;whiteSpace=wrap;html=1;boundedLbl=1;backgroundOutline=1;size=15;" vertex="1" parent="1">
          <mxGeometry x="660" y="288" width="110" height="190" as="geometry" />
        </mxCell>
        <mxCell id="UNNmBJ0jyy0QN1x2yB6o-6" style="edgeStyle=orthogonalEdgeStyle;rounded=0;orthogonalLoop=1;jettySize=auto;html=1;entryX=0.027;entryY=0.458;entryDx=0;entryDy=0;entryPerimeter=0;exitX=1;exitY=0.75;exitDx=0;exitDy=0;" edge="1" parent="1" source="HvQampFsSO-Fz9gzfGf1-4" target="UNNmBJ0jyy0QN1x2yB6o-5">
          <mxGeometry relative="1" as="geometry">
            <mxPoint x="680" y="387" as="sourcePoint" />
          </mxGeometry>
        </mxCell>
      </root>
    </mxGraphModel>
  </diagram>
</mxfile>
